<svg width="32" height="32" viewBox="0 0 32 32" fill="none" xmlns="http://www.w3.org/2000/svg">
<g clip-path="url(#clip0)">
<path d="M2850.29 -4690.82H-806.857V3109.65H2850.29V-4690.82Z" fill="#F8F8F8"/>
<path d="M450.286 -436.706H-464V222.118H450.286V-436.706Z" fill="white"/>
<path d="M-31.0123 32.4518C-32.6215 32.4518 -33.9381 32.4066 -34.9621 32.3162C-35.9861 32.2259 -37.1015 32.0452 -38.3083 31.7741C-39.5518 31.4729 -40.5575 31.0513 -41.3255 30.5092C-42.0935 29.9369 -42.7335 29.1238 -43.2455 28.0696C-43.7941 27.0456 -44.0683 25.8108 -44.0683 24.3652V10.3153C-44.0683 8.92988 -43.8123 7.71012 -43.3003 6.656C-42.7883 5.60188 -42.1301 4.77365 -41.3255 4.17129C-40.6306 3.65929 -39.6798 3.25271 -38.4729 2.95153C-37.2661 2.62024 -36.0592 2.40941 -34.8523 2.31906C-33.4626 2.25882 -32.1826 2.22871 -31.0123 2.22871C-29.3666 2.22871 -28.0501 2.27388 -27.0626 2.36424C-26.0752 2.42447 -24.9781 2.60518 -23.7712 2.90635C-22.4546 3.23765 -21.4124 3.67435 -20.6444 4.21647C-19.8764 4.75859 -19.2181 5.54165 -18.6695 6.56565C-18.1209 7.58965 -17.8466 8.83953 -17.8466 10.3153V24.3652C-17.8466 25.7506 -18.1209 26.9704 -18.6695 28.0245C-19.1815 29.0786 -19.8398 29.8918 -20.6444 30.464C-21.3758 30.976 -22.3815 31.3976 -23.6615 31.7289C-24.9049 32.0602 -26.0935 32.256 -27.2272 32.3162C-28.2512 32.4066 -29.5129 32.4518 -31.0123 32.4518ZM-30.9026 28.2052C-29.3666 28.2052 -28.2695 28.1299 -27.6112 27.9793C-26.9529 27.7986 -26.514 27.4824 -26.2946 27.0306C-26.0752 26.5788 -25.9655 25.8409 -25.9655 24.8169V9.86353C-25.9655 8.83953 -26.0752 8.10165 -26.2946 7.64988C-26.514 7.19812 -26.9529 6.89694 -27.6112 6.74635C-28.2695 6.56565 -29.3666 6.47529 -30.9026 6.47529C-32.4752 6.47529 -33.6089 6.56565 -34.3038 6.74635C-34.9621 6.89694 -35.4009 7.19812 -35.6203 7.64988C-35.8398 8.10165 -35.9495 8.83953 -35.9495 9.86353V24.8169C-35.9495 25.8409 -35.8398 26.5788 -35.6203 27.0306C-35.4009 27.4824 -34.9621 27.7986 -34.3038 27.9793C-33.6089 28.1299 -32.4752 28.2052 -30.9026 28.2052ZM-1.57892 12.3482H15.9205C16.7617 11.6856 17.1822 10.9026 17.1822 9.99906V9.41176C17.1822 7.96612 15.4634 7.24329 12.0257 7.24329C10.6725 7.24329 9.24622 7.33365 7.74679 7.51435C6.24737 7.66494 4.30908 7.92094 1.93194 8.28235V3.04188C4.08965 2.77082 6.06451 2.57506 7.85651 2.45459C9.64851 2.304 11.6965 2.22871 14.0005 2.22871C18.3525 2.22871 21.4794 2.74071 23.381 3.76471C25.3193 4.78871 26.2885 6.29459 26.2885 8.28235V8.91482C26.2885 9.63765 26.1605 10.2701 25.9045 10.8122C25.685 11.3242 25.3742 11.8362 24.9719 12.3482H30.0188V16.0527H-1.57892V12.3482ZM14.4394 32.4518C10.0874 32.4518 6.94223 31.9398 5.00394 30.9158C3.10223 29.8918 2.15137 28.3859 2.15137 26.3981V25.7656C2.15137 25.0428 2.26108 24.4254 2.48051 23.9134C2.73651 23.3713 3.06565 22.8442 3.46794 22.3322H-1.57892V18.6278H30.0188V22.3322H12.5194C11.6782 22.9948 11.2577 23.7779 11.2577 24.6814V25.2687C11.2577 26.7144 12.9765 27.4372 16.4142 27.4372C17.7674 27.4372 19.1937 27.3619 20.6931 27.2113C22.1925 27.0306 24.1308 26.7595 26.5079 26.3981V31.6386C24.3502 31.9096 22.3754 32.1054 20.5834 32.2259C18.7914 32.3765 16.7434 32.4518 14.4394 32.4518Z" fill="#313131"/>
</g>
<defs>
<clipPath id="clip0">
<rect width="32" height="32" fill="white"/>
</clipPath>
</defs>
</svg>
