<svg width="125" height="24" viewBox="0 0 125 24" fill="none" xmlns="http://www.w3.org/2000/svg">
<g clip-path="url(#clip0)">
<path d="M12.8311 11.9338C12.3518 11.9522 11.8956 11.966 11.4625 11.9751C11.0385 11.9843 10.6238 11.9935 10.2183 12.0027C9.81274 12.0027 9.41183 12.0027 9.01553 12.0027C8.61922 12.0027 8.21832 12.0027 7.8128 12.0027C7.57317 12.4715 7.30129 13.0183 6.99715 13.6433C6.70222 14.2592 6.38887 14.9071 6.05709 15.5873C5.73451 16.2674 5.40733 16.9568 5.07555 17.6553C4.75297 18.3446 4.44422 19.0017 4.1493 19.6267C3.85439 20.2425 3.5871 20.7986 3.34748 21.295C3.10785 21.8006 2.91431 22.2004 2.76686 22.4945C2.66547 22.7058 2.54105 22.8989 2.39358 23.0736C2.24613 23.2574 2.08485 23.4135 1.90974 23.5423C1.73462 23.6709 1.55491 23.7674 1.37058 23.8318C1.18625 23.9052 1.01575 23.9421 0.859073 23.9421C0.637881 23.9421 0.439729 23.8869 0.264619 23.7766C0.0895082 23.6664 0.00195312 23.4917 0.00195312 23.2527C0.00195312 23.1333 0.0296021 22.9908 0.0849001 22.8254C0.140198 22.6691 0.218537 22.4853 0.319916 22.2738L5.19997 11.9614H4.46727C3.96037 11.9614 3.61476 11.8832 3.43043 11.727C3.2461 11.5707 3.15393 11.3869 3.15393 11.1755C3.15393 10.9549 3.26914 10.7435 3.49956 10.5413C3.72997 10.3299 4.06636 10.2242 4.50875 10.2242H6.14003C6.79439 8.90989 7.44875 7.82533 8.10311 6.97055C8.76669 6.11577 9.41643 5.44022 10.0524 4.94389C10.6883 4.44757 11.3058 4.1029 11.9049 3.90989C12.5131 3.71687 13.0938 3.62036 13.6467 3.62036C13.9048 3.62036 14.149 3.67092 14.3794 3.77203C14.6191 3.87312 14.8265 4.02478 15.0016 4.22698C15.1859 4.42919 15.3333 4.68654 15.444 4.99905C15.5545 5.30235 15.6099 5.66081 15.6099 6.0744C15.6099 6.46963 15.5545 6.90621 15.444 7.38415C15.4162 7.51282 15.361 7.62312 15.278 7.71503C15.1951 7.79776 15.1029 7.86669 15.0016 7.92184C14.9002 7.97698 14.7987 8.01835 14.6974 8.04592C14.596 8.0643 14.5085 8.07349 14.4348 8.07349C14.2504 8.07349 14.0799 8.03213 13.9232 7.94941C13.7665 7.8575 13.6882 7.71963 13.6882 7.5358C13.6882 7.41633 13.6928 7.30603 13.702 7.20493C13.7205 7.10382 13.7297 7.00272 13.7297 6.90161C13.7297 6.51558 13.6559 6.23985 13.5085 6.0744C13.3702 5.90897 13.1813 5.82624 12.9417 5.82624C12.656 5.82624 12.3196 5.95032 11.9325 6.19848C11.5546 6.44666 11.1675 6.77753 10.7712 7.19114C10.3842 7.60474 10.0109 8.07809 9.65146 8.61117C9.29201 9.13507 8.9971 9.67275 8.76669 10.2242H11.9878C12.2735 10.2242 12.5408 10.2288 12.7896 10.238C13.0385 10.2472 13.255 10.2748 13.4394 10.3207C13.6329 10.3667 13.7804 10.4448 13.8818 10.5551C13.9923 10.6562 14.0476 10.8079 14.0476 11.0101C14.0476 11.1112 14.0292 11.2123 13.9923 11.3134C13.9555 11.4145 13.891 11.511 13.7988 11.6029C13.7159 11.6856 13.5961 11.7592 13.4394 11.8235C13.2827 11.8786 13.0799 11.9154 12.8311 11.9338ZM13.6191 7.83911C13.6191 7.62771 13.6559 7.41173 13.7297 7.19114C13.8126 6.96136 13.9324 6.75456 14.0891 6.57074C14.2458 6.38691 14.4393 6.23526 14.6697 6.11577C14.9094 5.99629 15.1904 5.93654 15.513 5.93654C16.0476 5.93654 16.4209 6.04224 16.6328 6.25364C16.8449 6.45585 16.9508 6.7132 16.9508 7.02569C16.9508 7.20033 16.9139 7.39334 16.8402 7.60474C16.7756 7.81614 16.6743 8.01374 16.5361 8.19757C16.3978 8.3722 16.218 8.51927 15.9969 8.63875C15.7758 8.75824 15.513 8.81797 15.209 8.81797C14.6375 8.81797 14.2366 8.73065 14.0062 8.55603C13.7758 8.37221 13.6467 8.13324 13.6191 7.83911ZM12.0984 10.9411C12.2551 10.6838 12.4348 10.5 12.6375 10.3897C12.8403 10.2794 13.0477 10.2242 13.2597 10.2242C13.6099 10.2242 13.9094 10.3391 14.1583 10.5689C14.4164 10.7895 14.5453 11.0744 14.5453 11.4237C14.5361 11.5064 14.5222 11.5891 14.5038 11.6718C14.4946 11.7546 14.467 11.8373 14.4209 11.92C14.2919 12.159 14.1859 12.3612 14.1029 12.5266C14.02 12.692 13.9417 12.8483 13.8679 12.9954C13.8034 13.1332 13.7389 13.2711 13.6744 13.409C13.6099 13.5468 13.5315 13.7123 13.4394 13.9053C13.3288 14.1351 13.2043 14.3878 13.0661 14.6635C12.9279 14.9301 12.7942 15.2058 12.6652 15.4908C12.5454 15.7757 12.4394 16.056 12.3472 16.3318C12.2643 16.6075 12.2228 16.8602 12.2228 17.0901C12.2228 17.3381 12.2827 17.5036 12.4025 17.5863C12.5316 17.6599 12.7113 17.6967 12.9417 17.6967C13.1997 17.6967 13.467 17.6415 13.7435 17.5313C14.0292 17.4209 14.3148 17.2784 14.6007 17.1038C14.8863 16.9291 15.1675 16.7316 15.444 16.511C15.7204 16.2813 15.9785 16.0514 16.218 15.8216C16.4669 15.5919 16.6927 15.3713 16.8955 15.1599C17.1075 14.9484 17.2826 14.7601 17.4209 14.5946C17.6052 14.42 17.7895 14.3326 17.9738 14.3326C18.1397 14.3326 18.2734 14.4062 18.3747 14.5533C18.4853 14.7004 18.5406 14.8887 18.5406 15.1185C18.5406 15.3299 18.4853 15.5551 18.3747 15.7941C18.2734 16.0331 18.1028 16.2583 17.8633 16.4696C17.3931 16.9476 16.9139 17.4072 16.4254 17.8483C15.937 18.2803 15.4348 18.6663 14.9186 19.0064C14.4117 19.3373 13.9002 19.6039 13.3841 19.806C12.8679 20.0082 12.3472 20.1093 11.8219 20.1093C11.0754 20.1093 10.4855 19.9209 10.0524 19.5441C9.62841 19.158 9.41643 18.5606 9.41643 17.7518C9.41643 17.3289 9.47634 16.9154 9.59616 16.511C9.71597 16.1066 9.85882 15.716 10.0247 15.3391C10.1906 14.9531 10.3657 14.5855 10.55 14.2362C10.7344 13.8777 10.8911 13.5376 11.0201 13.216C11.0662 13.0965 11.1445 12.9126 11.2551 12.6645C11.3749 12.4163 11.4993 12.1636 11.6284 11.9062C11.7758 11.6029 11.9325 11.2812 12.0984 10.9411ZM19.1351 11.3961C19.3194 11.0009 19.5498 10.7068 19.8263 10.5138C20.1028 10.3207 20.3746 10.2242 20.6419 10.2242C20.8631 10.2242 21.0613 10.3069 21.2364 10.4724C21.4115 10.6286 21.499 10.863 21.499 11.1755C21.499 11.295 21.4853 11.4237 21.4575 11.5615C21.4299 11.6994 21.3793 11.8465 21.3055 12.0027C21.5082 11.7454 21.7986 11.4834 22.1764 11.2169C22.5544 10.9411 22.969 10.6976 23.4206 10.4862C23.8815 10.2656 24.3515 10.0864 24.8307 9.9485C25.3192 9.81062 25.78 9.74169 26.2132 9.74169C26.7016 9.74169 27.1072 9.86118 27.4298 10.1001C27.7615 10.3299 27.9274 10.7252 27.9274 11.2858C27.9274 11.6167 27.8767 11.9614 27.7754 12.3198C27.674 12.6783 27.5404 13.0367 27.3745 13.3952C27.2177 13.7536 27.0381 14.1075 26.8352 14.4567C26.6417 14.7968 26.4482 15.1185 26.2547 15.4218C26.0612 15.7252 25.8814 16.0054 25.7155 16.2628C25.5589 16.511 25.4345 16.7178 25.3423 16.8833C25.2224 17.0304 25.1625 17.2003 25.1625 17.3933C25.1625 17.4669 25.1856 17.5313 25.2316 17.5863C25.2778 17.6415 25.3515 17.669 25.4529 17.669C25.5174 17.669 25.591 17.6645 25.674 17.6553C25.757 17.6369 25.8583 17.5863 25.9782 17.5036C26.4758 17.3198 26.9827 17.0901 27.4989 16.8144C28.0242 16.5385 28.5265 16.2491 29.0058 15.9457C29.485 15.6333 29.9227 15.3254 30.3191 15.022C30.7245 14.7096 31.061 14.4292 31.3283 14.181C31.4021 14.1167 31.4757 14.0707 31.5494 14.0432C31.6232 14.0156 31.6923 14.0018 31.7568 14.0018C31.9135 14.0018 32.0333 14.0615 32.1162 14.181C32.2084 14.3006 32.2545 14.4522 32.2545 14.636C32.2545 14.9209 32.1624 15.238 31.9781 15.5873C31.803 15.9365 31.5218 16.2628 31.1348 16.5662C30.6094 16.943 30.1256 17.2876 29.6832 17.6001C29.25 17.9127 28.803 18.2068 28.3422 18.4825C27.8906 18.749 27.4021 19.0017 26.8767 19.2408C26.3607 19.4706 25.7524 19.6866 25.052 19.8888C24.8123 19.9623 24.5912 20.0174 24.3883 20.0542C24.1948 20.0909 24.0152 20.1093 23.8493 20.1093C23.3607 20.1093 23.0013 19.976 22.771 19.7095C22.5497 19.4337 22.4391 19.0523 22.4391 18.5652C22.4391 18.5009 22.4391 18.4411 22.4391 18.3859C22.4483 18.3217 22.4575 18.2527 22.4667 18.1793C22.4852 17.8942 22.5589 17.5818 22.688 17.2417C22.8262 16.9016 22.9876 16.5523 23.1719 16.1939C23.3654 15.8354 23.5681 15.4815 23.78 15.1324C23.9921 14.7738 24.1856 14.4384 24.3607 14.1259C24.545 13.8042 24.6971 13.5193 24.817 13.2711C24.9367 13.0229 24.9966 12.8207 24.9966 12.6645C24.9966 12.5266 24.9551 12.4117 24.8722 12.3198C24.7984 12.2187 24.6833 12.1682 24.5266 12.1682C23.9367 12.1682 23.3746 12.3428 22.84 12.692C22.3147 13.0413 21.8216 13.4733 21.3609 13.988C20.8999 14.4936 20.4761 15.0312 20.0889 15.6011C19.7019 16.1709 19.3609 16.6811 19.066 17.1314C18.8817 17.4347 18.7111 17.7609 18.5544 18.1102C18.407 18.4503 18.2503 18.7721 18.0844 19.0753C17.9185 19.3695 17.7296 19.613 17.5176 19.806C17.3148 20.0082 17.0568 20.1093 16.7434 20.1093C16.4209 20.1093 16.1673 20.0082 15.983 19.806C15.7987 19.6039 15.7066 19.3557 15.7066 19.0616C15.7066 18.9053 15.7711 18.6525 15.9001 18.3032C16.0292 17.9539 16.1951 17.5496 16.3978 17.0901C16.6005 16.6304 16.8263 16.1387 17.0752 15.6148C17.3333 15.0817 17.5867 14.5578 17.8355 14.0432C18.0936 13.5193 18.3378 13.0275 18.5682 12.568C18.7987 12.1084 18.9876 11.7178 19.1351 11.3961ZM35.7936 11.6305C35.7475 11.6213 35.706 11.6167 35.6692 11.6167C35.6322 11.6167 35.5908 11.6167 35.5448 11.6167C35.1945 11.6167 34.8674 11.6856 34.5632 11.8235C34.2591 11.9614 33.9779 12.1452 33.7199 12.375C33.4711 12.5956 33.2452 12.8483 33.0425 13.1332C32.849 13.4182 32.6739 13.7031 32.5171 13.988C32.3604 14.2637 32.2268 14.5303 32.1162 14.7876C32.0149 15.045 31.9366 15.261 31.8812 15.4356C32.2039 15.2702 32.5355 15.0817 32.8766 14.8704C33.2268 14.659 33.554 14.4567 33.8582 14.2637C34.1622 14.0707 34.425 13.8961 34.6461 13.7398C34.8766 13.5836 35.0378 13.4779 35.13 13.4228C35.5448 13.1654 35.8304 12.9264 35.9871 12.7058C36.1438 12.4761 36.2221 12.2785 36.2221 12.113C36.2221 11.9751 36.1761 11.8649 36.084 11.7821C36.001 11.6994 35.9042 11.6489 35.7936 11.6305ZM36.2912 9.72789C37.0562 9.72789 37.6276 9.91172 38.0055 10.2794C38.3834 10.647 38.5724 11.1571 38.5724 11.8097C38.5724 12.1957 38.471 12.6001 38.2681 13.0229C38.0654 13.4457 37.7152 13.8777 37.2175 14.3189C36.7199 14.7509 36.0517 15.1966 35.2129 15.6561C34.3835 16.1066 33.342 16.5615 32.0886 17.021C32.1346 17.2876 32.2776 17.4991 32.5171 17.6553C32.7568 17.8023 33.0748 17.8759 33.4711 17.8759C33.895 17.8759 34.3466 17.8161 34.8259 17.6967C35.3143 17.568 35.7936 17.4072 36.2636 17.2142C36.7428 17.021 37.2083 16.8144 37.6598 16.5937C38.1114 16.3639 38.517 16.148 38.8764 15.9457C39.2451 15.7435 39.5493 15.5689 39.7888 15.4218C40.0377 15.2748 40.2036 15.1829 40.2865 15.1461C40.3695 15.091 40.4432 15.0588 40.5078 15.0497C40.5814 15.0403 40.646 15.0358 40.7013 15.0358C40.8119 15.0358 40.904 15.0633 40.9778 15.1185C41.0515 15.1644 41.1114 15.2243 41.1574 15.2977C41.2128 15.3621 41.2496 15.4356 41.2681 15.5184C41.2865 15.5919 41.2957 15.6561 41.2957 15.7113C41.2957 15.7941 41.2865 15.8952 41.2681 16.0147C41.2496 16.125 41.1805 16.2536 41.0607 16.4007C41.0146 16.4466 40.8579 16.5707 40.5906 16.773C40.3327 16.9752 39.9962 17.2142 39.5816 17.4899C39.1668 17.7656 38.6829 18.0597 38.13 18.3722C37.5862 18.6755 37.0055 18.9559 36.388 19.2132C35.7797 19.4706 35.1438 19.6819 34.4802 19.8474C33.8167 20.022 33.1624 20.1093 32.5171 20.1093C31.9642 20.1093 31.4711 20.0037 31.038 19.7922C30.614 19.5809 30.25 19.296 29.9458 18.9375C29.6509 18.5791 29.4251 18.1654 29.2684 17.6967C29.1117 17.2279 29.0334 16.7361 29.0334 16.2214C29.0334 15.8263 29.1117 15.3943 29.2684 14.9256C29.4251 14.4475 29.6509 13.9696 29.9458 13.4917C30.2407 13.0137 30.6002 12.5496 31.0241 12.0992C31.4573 11.6397 31.9411 11.2352 32.4757 10.886C33.0102 10.5367 33.5954 10.2564 34.2315 10.045C34.8766 9.83359 35.5632 9.72789 36.2912 9.72789Z" fill="#FFD31D"/>
<path d="M55.2956 12.8471V15.6706C55.2956 17.1953 54.6821 18.2588 53.4553 18.8612C52.2284 19.4636 50.4069 19.7647 47.991 19.7647H40.3466V1.44H47.7928C50.3975 1.44 52.1622 1.73177 53.0872 2.3153C54.012 2.89882 54.4745 3.91529 54.4745 5.36471V7.62353C54.4745 8.15058 54.2669 8.64 53.8517 9.09177C53.4363 9.54353 52.9645 9.8447 52.436 9.99529V10.1365C53.1155 10.2118 53.7572 10.5129 54.3613 11.04C54.9842 11.5671 55.2956 12.1694 55.2956 12.8471ZM50.2276 7.05882V6.15529C50.2276 5.55294 50.0861 5.13882 49.803 4.91294C49.5198 4.68706 48.8214 4.57412 47.7078 4.57412H44.7633V8.89412H47.7928C48.8308 8.89412 49.4915 8.76236 49.7746 8.49882C50.0766 8.23529 50.2276 7.75529 50.2276 7.05882ZM50.8788 15.0776V13.6094C50.8788 12.9318 50.6995 12.4518 50.3409 12.1694C50.0011 11.8871 49.3876 11.7459 48.5006 11.7459H44.7633V16.6306H47.906C48.9819 16.6306 49.7463 16.5082 50.1993 16.2635C50.6523 16.0189 50.8788 15.6236 50.8788 15.0776ZM62.3954 4.48941H58.2618V1.15765H62.3954V4.48941ZM62.3954 19.7647H58.2618V6.09882H62.3954V19.7647ZM79.361 19.7647H75.2274V10.2776C75.2274 9.52471 75.0953 9.01648 74.831 8.75294C74.5857 8.48941 73.9816 8.35765 73.019 8.35765C71.8299 8.35765 71.0749 8.48941 70.754 8.75294C70.4332 8.99764 70.2727 9.50588 70.2727 10.2776V19.7647H66.139V6.09882H70.216V7.76471C70.537 6.46588 71.9997 5.81647 74.6045 5.81647C76.4165 5.81647 77.6622 6.14588 78.3417 6.80471C79.0212 7.4447 79.361 8.42353 79.361 9.74118V19.7647ZM96.5674 19.7647H92.5753V18.2118C92.2544 18.72 91.9618 19.0965 91.6976 19.3412C91.4333 19.5671 91.037 19.7365 90.5085 19.8494C89.9799 19.9811 89.225 20.0471 88.2435 20.0471C85.9029 20.0471 84.374 19.7552 83.6569 19.1718C82.9396 18.5883 82.581 17.2895 82.581 15.2753V9.93882C82.581 8.3953 83.015 7.32236 83.8834 6.72C84.7704 6.11764 86.1577 5.81647 88.0453 5.81647C89.4043 5.81647 90.3575 5.94823 90.9049 6.21177C91.4522 6.45647 91.9618 6.92706 92.4338 7.62353V0H96.5674V19.7647ZM92.4338 15.6706V10.1647C92.4338 9.48706 92.2449 9.01648 91.8675 8.75294C91.5088 8.48941 90.7255 8.35765 89.5176 8.35765C88.2528 8.35765 87.4696 8.48001 87.1676 8.72471C86.8655 8.96941 86.7146 9.49648 86.7146 10.3059V15.5294C86.7146 16.2823 86.8655 16.8 87.1676 17.0824C87.4696 17.3459 88.1774 17.4776 89.2911 17.4776C90.6311 17.4776 91.49 17.3647 91.8675 17.1388C92.2449 16.8942 92.4338 16.4047 92.4338 15.6706ZM112.858 14.0329H103.968V15.2753C103.968 16.0471 104.242 16.6118 104.789 16.9694C105.337 17.3082 106.365 17.4776 107.875 17.4776C109.234 17.4776 110.763 17.28 112.462 16.8847V19.5106C110.726 19.8682 108.932 20.0471 107.083 20.0471C102.232 20.0471 99.8062 18.5694 99.8062 15.6141V10.7012C99.8062 8.95059 100.372 7.69882 101.505 6.94588C102.637 6.19295 104.327 5.81647 106.573 5.81647C108.687 5.81647 110.263 6.17411 111.301 6.88941C112.339 7.60471 112.858 8.8753 112.858 10.7012V14.0329ZM108.923 11.6894V9.71294C108.923 9.28 108.744 8.95059 108.385 8.72471C108.045 8.48001 107.422 8.35765 106.516 8.35765C105.516 8.35765 104.837 8.48001 104.478 8.72471C104.138 8.95059 103.968 9.28 103.968 9.71294V11.6894H108.923ZM124.993 9.23294H123.577C122.445 9.23294 121.586 9.41177 121.001 9.76941C120.435 10.1082 120.151 10.7012 120.151 11.5482V19.7647H116.018V6.09882H119.953V8.49882C119.972 7.82118 120.359 7.20942 121.114 6.66353C121.888 6.09882 122.69 5.81647 123.521 5.81647H124.993V9.23294Z" fill="white"/>
</g>
<defs>
<clipPath id="clip0">
<rect width="125" height="24" fill="white"/>
</clipPath>
</defs>
</svg>
