<svg width="25" height="25" viewBox="0 0 25 25" fill="none" xmlns="http://www.w3.org/2000/svg">
<path d="M21.3389 3.66113C18.9779 1.30024 15.8389 0 12.5 0C9.16113 0 6.02212 1.30024 3.66113 3.66113C1.30024 6.02212 0 9.16113 0 12.5C0 15.8389 1.30024 18.9779 3.66113 21.3389C6.02212 23.6998 9.16113 25 12.5 25C15.8389 25 18.9779 23.6998 21.3389 21.3389C23.6998 18.9779 25 15.8389 25 12.5C25 9.16113 23.6998 6.02212 21.3389 3.66113ZM20.303 20.303C18.2188 22.3873 15.4476 23.5352 12.5 23.5352C9.55239 23.5352 6.78125 22.3873 4.69697 20.303C2.6127 18.2188 1.46484 15.4476 1.46484 12.5C1.46484 9.55239 2.6127 6.78125 4.69697 4.69697C6.78125 2.6127 9.55239 1.46484 12.5 1.46484C15.4476 1.46484 18.2188 2.6127 20.303 4.69697C22.3873 6.78125 23.5352 9.55239 23.5352 12.5C23.5352 15.4476 22.3873 18.2188 20.303 20.303Z" fill="#FFD31D"/>
<path d="M8.55231 6.11316V18.8868L19.6146 12.5L8.55231 6.11316ZM10.0172 8.65041L16.6849 12.5L10.0172 16.3496V8.65041Z" fill="#FFD31D"/>
</svg>
